<svg width="72" height="72" viewBox="0 0 72 72" fill="none" xmlns="http://www.w3.org/2000/svg" style="filter: drop-shadow(0 4px 8px rgba(0, 0, 0, 0.2));">
    <path d="M1 39.5C2.85652 39.5 4.63699 38.7625 5.94975 37.4497C7.2625 36.137 8 34.3565 8 32.5V18.5C8 16.6435 8.7375 14.863 10.0503 13.5503C11.363 12.2375 13.1435 11.5 15 11.5C16.8565 11.5 18.637 12.2375 19.9497 13.5503C21.2625 14.863 22 16.6435 22 18.5V64C22 65.8565 22.7375 67.637 24.0503 68.9497C25.363 70.2625 27.1435 71 29 71C30.8565 71 32.637 70.2625 33.9497 68.9497C35.2625 67.637 36 65.8565 36 64V8C36 6.14348 36.7375 4.36301 38.0503 3.05025C39.363 1.7375 41.1435 1 43 1C44.8565 1 46.637 1.7375 47.9497 3.05025C49.2625 4.36301 50 6.14348 50 8V53.5C50 55.3565 50.7375 57.137 52.0503 58.4497C53.363 59.7625 55.1435 60.5 57 60.5C58.8565 60.5 60.637 59.7625 61.9497 58.4497C63.2625 57.137 64 55.3565 64 53.5V39.5C64 37.6435 64.7375 35.863 66.0503 34.5503C67.363 33.2375 69.1435 32.5 71 32.5" stroke="white" stroke-width="2" stroke-linecap="round" stroke-linejoin="round"/>
</svg>